<?xml version="1.0" encoding="UTF-8"?>
<svg xmlns="http://www.w3.org/2000/svg" xmlns:xlink="http://www.w3.org/1999/xlink" viewBox="0 0 512 512" width="512px" height="512px">
<g id="surface32051475">
<path style=" stroke:none;fill-rule:nonzero;fill:rgb(96.470588%,82.745099%,59.215689%);fill-opacity:1;" d="M 408 56 L 104 56 C 77.519531 56 56 77.519531 56 104 L 56 408 C 56 434.480469 77.519531 456 104 456 L 408 456 C 434.480469 456 456 434.480469 456 408 L 456 104 C 456 77.519531 434.480469 56 408 56 Z M 367.039062 416 C 344.960938 416 328.238281 407.121094 317.441406 389.679688 L 331.519531 380 C 338.238281 390 348.320312 400.800781 366.238281 400.800781 C 386.800781 400.800781 396 388.078125 396 375.441406 C 396 357.441406 382.320312 351.28125 367.761719 344.800781 L 359.199219 341.039062 C 332.558594 329.441406 322.640625 317.039062 322.640625 295.359375 C 322.640625 272.398438 339.679688 256.960938 365.039062 256.960938 C 382.320312 256.960938 394.078125 262.320312 402.960938 274.71875 L 389.441406 283.601562 C 383.039062 275.359375 375.28125 271.601562 365.039062 271.601562 C 350.878906 271.601562 340.558594 281.28125 340.558594 294.640625 C 340.558594 310.640625 351.761719 316.800781 366.480469 323.359375 L 375.121094 327.121094 C 406.078125 340.71875 416 352.320312 416 375.039062 C 416 405.199219 390.71875 416 367.039062 416 Z M 218.160156 416 C 196.878906 416 179.921875 403.761719 170.800781 390 L 186.960938 380.398438 C 194.558594 390.078125 204.480469 395.121094 216 395.121094 C 233.921875 395.121094 242.640625 385.199219 242.640625 364.800781 L 242.640625 256.960938 L 264 256.960938 L 264 370.398438 C 264 408.078125 239.121094 416 218.160156 416 Z M 218.160156 416 "/>
<path style=" stroke:none;fill-rule:nonzero;fill:rgb(97.647059%,89.019608%,68.235296%);fill-opacity:1;" d="M 88 56 L 424 56 C 441.671875 56 456 70.328125 456 88 C 456 101.257812 445.257812 112 432 112 L 80 112 C 66.742188 112 56 101.257812 56 88 C 56 70.328125 70.328125 56 88 56 Z M 88 56 "/>
<path style=" stroke:none;fill-rule:nonzero;fill:rgb(55.29412%,42.352942%,62.352943%);fill-opacity:1;" d="M 411.390625 464 L 100.617188 464 C 71.609375 464 48 440.390625 48 411.382812 L 48 100.617188 C 48 71.609375 71.609375 48 100.617188 48 L 411.390625 48 C 440.398438 48 464 71.601562 464 100.609375 L 464 411.398438 C 464 440.398438 440.398438 464 411.390625 464 Z M 100.617188 64 C 80.425781 64 64 80.425781 64 100.617188 L 64 411.382812 C 64 431.574219 80.425781 448 100.617188 448 L 411.390625 448 C 431.574219 448 448 431.574219 448 411.390625 L 448 100.609375 C 448 80.425781 431.574219 64 411.390625 64 Z M 100.617188 64 "/>
<path style=" stroke:none;fill-rule:nonzero;fill:rgb(55.29412%,42.352942%,62.352943%);fill-opacity:1;" d="M 381.519531 312.480469 L 372.960938 308.71875 C 357.921875 302.078125 356.558594 299.679688 356.558594 294.640625 C 356.558594 290.238281 359.761719 287.601562 365.039062 287.601562 C 370.960938 287.601562 375.121094 289.359375 380.160156 298.480469 C 381.199219 300.480469 383.039062 301.921875 385.199219 302.398438 C 387.359375 302.960938 389.679688 302.558594 391.519531 301.359375 L 418.320312 283.761719 C 421.839844 281.441406 422.960938 276.878906 420.878906 273.199219 C 408.640625 251.199219 390.878906 240.960938 365.039062 240.960938 C 331.199219 240.960938 306.640625 263.839844 306.640625 295.359375 C 306.640625 330.800781 330 345.761719 352.71875 355.679688 L 361.28125 359.441406 C 378.160156 366.960938 380 369.359375 380 375.441406 C 380 383.199219 372.480469 384.800781 366.238281 384.800781 C 353.839844 384.800781 347.839844 376.398438 340.800781 364.640625 C 339.679688 362.71875 337.761719 361.359375 335.601562 360.878906 C 333.519531 360.398438 331.199219 360.878906 329.441406 362.078125 L 302.398438 380.558594 C 299.121094 382.800781 297.921875 387.121094 299.679688 390.71875 C 313.121094 417.679688 336.398438 432 367.039062 432 C 406.480469 432 432 409.601562 432 375.039062 C 432 341.359375 412.640625 326.078125 381.519531 312.480469 Z M 367.039062 416 C 344.960938 416 328.238281 407.121094 317.441406 389.679688 L 331.519531 380 C 338.238281 390 348.320312 400.800781 366.238281 400.800781 C 386.800781 400.800781 396 388.078125 396 375.441406 C 396 357.441406 382.320312 351.28125 367.761719 344.800781 L 359.199219 341.039062 C 332.558594 329.441406 322.640625 317.039062 322.640625 295.359375 C 322.640625 272.398438 339.679688 256.960938 365.039062 256.960938 C 382.320312 256.960938 394.078125 262.320312 402.960938 274.71875 L 389.441406 283.601562 C 383.039062 275.359375 375.28125 271.601562 365.039062 271.601562 C 350.878906 271.601562 340.558594 281.28125 340.558594 294.640625 C 340.558594 310.640625 351.761719 316.800781 366.480469 323.359375 L 375.121094 327.121094 C 406.078125 340.71875 416 352.320312 416 375.039062 C 416 405.199219 390.71875 416 367.039062 416 Z M 367.039062 416 "/>
<path style=" stroke:none;fill-rule:nonzero;fill:rgb(63.137257%,51.372552%,70.980394%);fill-opacity:1;" d="M 416 375.039062 C 416 405.199219 390.71875 416 367.039062 416 C 344.960938 416 328.238281 407.121094 317.441406 389.679688 L 331.519531 380 C 338.238281 390 348.320312 400.800781 366.238281 400.800781 C 386.800781 400.800781 396 388.078125 396 375.441406 C 396 357.441406 382.320312 351.28125 367.761719 344.800781 L 359.199219 341.039062 C 332.558594 329.441406 322.640625 317.039062 322.640625 295.359375 C 322.640625 272.398438 339.679688 256.960938 365.039062 256.960938 C 382.320312 256.960938 394.078125 262.320312 402.960938 274.71875 L 389.441406 283.601562 C 383.039062 275.359375 375.28125 271.601562 365.039062 271.601562 C 350.878906 271.601562 340.558594 281.28125 340.558594 294.640625 C 340.558594 310.640625 351.761719 316.800781 366.480469 323.359375 L 375.121094 327.121094 C 406.078125 340.71875 416 352.320312 416 375.039062 Z M 416 375.039062 "/>
<path style=" stroke:none;fill-rule:nonzero;fill:rgb(55.29412%,42.352942%,62.352943%);fill-opacity:1;" d="M 272 240.960938 L 234.640625 240.960938 C 230.238281 240.960938 226.640625 244.558594 226.640625 248.960938 L 226.640625 364.800781 C 226.640625 379.121094 222.398438 379.121094 216 379.121094 C 208 379.121094 201.359375 374.640625 196.320312 365.679688 C 195.199219 363.761719 193.441406 362.398438 191.359375 361.839844 C 189.28125 361.359375 187.039062 361.679688 185.199219 362.71875 L 155.921875 380.238281 C 152.320312 382.398438 151.039062 386.878906 152.800781 390.558594 C 161.921875 409.679688 184.558594 432 218.160156 432 C 256.878906 432 280 408.960938 280 370.398438 L 280 248.960938 C 280 244.558594 276.398438 240.960938 272 240.960938 Z M 264 370.398438 C 264 408.078125 239.121094 416 218.160156 416 C 196.878906 416 179.921875 403.761719 170.800781 390 L 186.960938 380.398438 C 194.558594 390.078125 204.480469 395.121094 216 395.121094 C 233.921875 395.121094 242.640625 385.199219 242.640625 364.800781 L 242.640625 256.960938 L 264 256.960938 Z M 264 370.398438 "/>
<path style=" stroke:none;fill-rule:nonzero;fill:rgb(63.137257%,51.372552%,70.980394%);fill-opacity:1;" d="M 264 256.960938 L 264 370.398438 C 264 408.078125 239.121094 416 218.160156 416 C 196.878906 416 179.921875 403.761719 170.800781 390 L 186.960938 380.398438 C 194.558594 390.078125 204.480469 395.121094 216 395.121094 C 233.921875 395.121094 242.640625 385.199219 242.640625 364.800781 L 242.640625 256.960938 Z M 264 256.960938 "/>
<path style=" stroke:none;fill-rule:nonzero;fill:rgb(55.29412%,42.352942%,62.352943%);fill-opacity:1;" d="M 136 96 C 131.585938 96 128 99.585938 128 104 L 128 120 C 128 124.414062 131.585938 128 136 128 C 140.414062 128 144 124.414062 144 120 L 144 104 C 144 99.585938 140.414062 96 136 96 Z M 96 96 C 91.585938 96 88 99.585938 88 104 L 88 120 C 88 124.414062 91.585938 128 96 128 C 100.414062 128 104 124.414062 104 120 L 104 104 C 104 99.585938 100.414062 96 96 96 Z M 256 96 C 251.585938 96 248 99.585938 248 104 L 248 120 C 248 124.414062 251.585938 128 256 128 C 260.414062 128 264 124.414062 264 120 L 264 104 C 264 99.585938 260.414062 96 256 96 Z M 296 96 C 291.585938 96 288 99.585938 288 104 L 288 120 C 288 124.414062 291.585938 128 296 128 C 300.414062 128 304 124.414062 304 120 L 304 104 C 304 99.585938 300.414062 96 296 96 Z M 336 96 C 331.585938 96 328 99.585938 328 104 L 328 120 C 328 124.414062 331.585938 128 336 128 C 340.414062 128 344 124.414062 344 120 L 344 104 C 344 99.585938 340.414062 96 336 96 Z M 376 96 C 371.585938 96 368 99.585938 368 104 L 368 120 C 368 124.414062 371.585938 128 376 128 C 380.414062 128 384 124.414062 384 120 L 384 104 C 384 99.585938 380.414062 96 376 96 Z M 416 96 C 411.585938 96 408 99.585938 408 104 L 408 120 C 408 124.414062 411.585938 128 416 128 C 420.414062 128 424 124.414062 424 120 L 424 104 C 424 99.585938 420.414062 96 416 96 Z M 176 96 C 171.585938 96 168 99.585938 168 104 L 168 120 C 168 124.414062 171.585938 128 176 128 C 180.414062 128 184 124.414062 184 120 L 184 104 C 184 99.585938 180.414062 96 176 96 Z M 216 96 C 211.585938 96 208 99.585938 208 104 L 208 120 C 208 124.414062 211.585938 128 216 128 C 220.414062 128 224 124.414062 224 120 L 224 104 C 224 99.585938 220.414062 96 216 96 Z M 216 96 "/>
<path style=" stroke:none;fill-rule:nonzero;fill:rgb(44.705883%,79.215688%,68.627453%);fill-opacity:1;" d="M 24.371094 37.808594 L 24.371094 212.617188 C 24.371094 219.289062 31.851562 223.417969 37.734375 219.984375 L 196.097656 132.125 C 201.828125 128.78125 201.804688 120.691406 196.066406 117.371094 L 37.691406 30.425781 C 31.8125 27.023438 24.371094 31.152344 24.371094 37.808594 Z M 24.371094 37.808594 "/>
<path style=" stroke:none;fill-rule:nonzero;fill:rgb(55.29412%,42.352942%,62.352943%);fill-opacity:1;" d="M 33.238281 229.210938 C 30.308594 229.210938 27.363281 228.457031 24.722656 226.953125 C 19.5 223.945312 16.371094 218.585938 16.371094 212.617188 L 16.371094 37.808594 C 16.371094 31.855469 19.484375 26.503906 24.691406 23.496094 C 29.941406 20.457031 36.460938 20.472656 41.691406 23.496094 L 199.90625 110.347656 C 205.253906 113.445312 208.363281 118.78125 208.371094 124.71875 C 208.378906 130.652344 205.300781 135.996094 200.125 139.023438 L 41.613281 226.976562 C 39.070312 228.464844 36.164062 229.210938 33.238281 229.210938 Z M 33.15625 37.21875 C 32.988281 37.21875 32.835938 37.273438 32.683594 37.359375 L 32.371094 37.808594 L 32.371094 212.617188 C 33.035156 213.273438 33.363281 213.25 33.691406 213.082031 L 192.210938 125.132812 L 33.84375 37.441406 C 33.582031 37.289062 33.355469 37.21875 33.15625 37.21875 Z M 33.15625 37.21875 "/>
</g>
</svg>
